<svg width="767" height="623" viewBox="0 0 767 623" fill="none" xmlns="http://www.w3.org/2000/svg">
<path d="M28.675 295V291.9H42.47V81.1H32.705C27.2283 81.1 22.8367 82.8567 19.53 86.37C16.2233 89.8833 13.8467 94.7917 12.4 101.095C10.9533 107.295 10.23 114.528 10.23 122.795H7.13V78H101.215V122.795H98.115C98.115 114.528 97.34 107.295 95.79 101.095C94.3433 94.7917 91.9667 89.8833 88.66 86.37C85.4567 82.8567 81.1167 81.1 75.64 81.1H65.72V291.9H80.29V295H28.675ZM134.14 298.255C128.457 298.255 123.239 296.963 118.485 294.38C113.732 291.797 109.96 287.767 107.17 282.29C104.38 276.71 102.985 269.373 102.985 260.28C102.985 250.36 104.794 242.197 108.41 235.79C112.027 229.28 116.522 223.855 121.895 219.515C127.269 215.072 132.642 211.145 138.015 207.735C143.389 204.325 147.884 200.76 151.5 197.04C155.117 193.217 156.925 188.618 156.925 183.245C156.925 175.185 156.46 167.538 155.53 160.305C154.6 152.968 152.895 146.975 150.415 142.325C147.935 137.675 144.267 135.35 139.41 135.35C134.554 135.35 130.162 137.262 126.235 141.085C122.412 144.908 120.5 149.403 120.5 154.57C120.5 157.05 120.862 159.323 121.585 161.39C122.412 163.353 123.135 165.368 123.755 167.435C124.479 169.398 124.84 171.672 124.84 174.255C124.84 178.078 124.065 181.282 122.515 183.865C120.965 186.345 118.485 187.585 115.075 187.585C111.769 187.585 109.34 186.19 107.79 183.4C106.24 180.61 105.465 176.735 105.465 171.775C105.465 164.748 107.067 158.187 110.27 152.09C113.474 145.993 117.917 141.085 123.6 137.365C129.284 133.645 135.845 131.785 143.285 131.785C150.415 131.785 156.719 133.697 162.195 137.52C167.775 141.343 172.167 147.182 175.37 155.035C178.574 162.888 180.175 172.963 180.175 185.26V281.205C180.175 285.235 180.795 288.128 182.035 289.885C183.275 291.642 184.774 292.52 186.53 292.52C187.874 292.52 189.217 292.21 190.56 291.59C191.904 290.867 192.937 290.195 193.66 289.575L195.365 292.365C194.435 293.398 192.524 294.432 189.63 295.465C186.737 296.498 183.224 297.015 179.09 297.015C175.68 297.015 172.374 296.447 169.17 295.31C166.07 294.277 163.487 292.468 161.42 289.885C159.457 287.198 158.424 283.685 158.32 279.345C157.804 281.722 156.564 284.408 154.6 287.405C152.74 290.298 150.105 292.83 146.695 295C143.389 297.17 139.204 298.255 134.14 298.255ZM141.58 291.435C144.267 291.435 146.799 290.505 149.175 288.645C151.552 286.682 153.412 284.305 154.755 281.515C156.202 278.725 156.925 276.038 156.925 273.455V193.475C156.719 196.368 155.065 199.623 151.965 203.24C148.969 206.753 145.507 210.887 141.58 215.64C137.757 220.393 134.347 226.128 131.35 232.845C128.457 239.458 127.01 247.26 127.01 256.25C127.01 267.203 127.992 275.832 129.955 282.135C131.919 288.335 135.794 291.435 141.58 291.435ZM258.593 298.1C254.047 298.1 250.327 296.705 247.433 293.915C244.54 291.125 242.37 287.922 240.923 284.305C239.58 280.688 238.753 277.743 238.443 275.47V295H201.398V291.9H215.193V65.6H201.398V62.5H238.753V154.415C239.27 152.348 240.2 149.558 241.543 146.045C242.99 142.428 245.263 139.173 248.363 136.28C251.463 133.387 255.597 131.94 260.763 131.94C266.86 131.94 272.492 134.678 277.658 140.155C282.928 145.632 287.165 154.467 290.368 166.66C293.572 178.75 295.173 194.767 295.173 214.71C295.173 235.17 293.417 251.497 289.903 263.69C286.493 275.883 281.998 284.667 276.418 290.04C270.942 295.413 265 298.1 258.593 298.1ZM255.493 293.915C258.903 293.915 261.59 291.797 263.553 287.56C265.62 283.22 267.17 277.382 268.203 270.045C269.237 262.605 269.908 254.183 270.218 244.78C270.528 235.377 270.683 225.56 270.683 215.33C270.683 206.753 270.528 197.918 270.218 188.825C270.012 179.628 269.443 171.207 268.513 163.56C267.583 155.81 266.137 149.558 264.173 144.805C262.313 139.948 259.678 137.52 256.268 137.52C252.962 137.52 250.068 139.277 247.588 142.79C245.108 146.2 243.093 150.385 241.543 155.345C240.097 160.305 239.167 165.11 238.753 169.76V256.715C239.063 262.502 239.89 268.288 241.233 274.075C242.577 279.758 244.437 284.512 246.813 288.335C249.293 292.055 252.187 293.915 255.493 293.915ZM308.498 295V291.9H320.433V65.6H308.498V62.5H343.528V291.9H355.618V295H308.498ZM412.283 298.255C404.843 298.255 398.436 295.878 393.063 291.125C387.793 286.372 383.453 279.965 380.043 271.905C376.736 263.845 374.256 254.752 372.603 244.625C371.053 234.498 370.278 224.113 370.278 213.47C370.278 199.623 371.415 187.585 373.688 177.355C375.961 167.022 379.01 158.497 382.833 151.78C386.76 145.063 391.151 140.052 396.008 136.745C400.968 133.438 406.031 131.785 411.198 131.785C417.295 131.785 422.668 133.697 427.318 137.52C432.071 141.343 435.998 146.51 439.098 153.02C442.301 159.53 444.678 166.918 446.228 175.185C447.881 183.452 448.708 191.977 448.708 200.76C448.708 202.413 448.708 204.067 448.708 205.72C448.708 207.373 448.656 209.078 448.553 210.835H391.668V207.735H425.458C425.458 192.752 425.045 179.783 424.218 168.83C423.495 157.877 422.1 149.455 420.033 143.565C417.966 137.675 415.021 134.73 411.198 134.73C407.581 134.73 404.481 137.52 401.898 143.1C399.315 148.68 397.351 157.153 396.008 168.52C394.665 179.783 393.993 193.992 393.993 211.145C393.993 221.995 394.148 232.432 394.458 242.455C394.768 252.478 395.595 261.417 396.938 269.27C398.385 277.02 400.555 283.168 403.448 287.715C406.445 292.262 410.526 294.535 415.693 294.535C423.65 294.535 429.953 292.417 434.603 288.18C439.356 283.84 442.508 279.138 444.058 274.075L446.693 275.625C444.42 281.722 440.493 287.043 434.913 291.59C429.333 296.033 421.79 298.255 412.283 298.255Z" fill="#7634CB"/>
<path d="M279.675 545V541.9H293.47V331.1H283.705C278.228 331.1 273.837 332.857 270.53 336.37C267.223 339.883 264.847 344.792 263.4 351.095C261.953 357.295 261.23 364.528 261.23 372.795H258.13V328H352.215V372.795H349.115C349.115 364.528 348.34 357.295 346.79 351.095C345.343 344.792 342.967 339.883 339.66 336.37C336.457 332.857 332.117 331.1 326.64 331.1H316.72V541.9H331.29V545H279.675ZM385.14 548.255C379.457 548.255 374.239 546.963 369.485 544.38C364.732 541.797 360.96 537.767 358.17 532.29C355.38 526.71 353.985 519.373 353.985 510.28C353.985 500.36 355.794 492.197 359.41 485.79C363.027 479.28 367.522 473.855 372.895 469.515C378.269 465.072 383.642 461.145 389.015 457.735C394.389 454.325 398.884 450.76 402.5 447.04C406.117 443.217 407.925 438.618 407.925 433.245C407.925 425.185 407.46 417.538 406.53 410.305C405.6 402.968 403.895 396.975 401.415 392.325C398.935 387.675 395.267 385.35 390.41 385.35C385.554 385.35 381.162 387.262 377.235 391.085C373.412 394.908 371.5 399.403 371.5 404.57C371.5 407.05 371.862 409.323 372.585 411.39C373.412 413.353 374.135 415.368 374.755 417.435C375.479 419.398 375.84 421.672 375.84 424.255C375.84 428.078 375.065 431.282 373.515 433.865C371.965 436.345 369.485 437.585 366.075 437.585C362.769 437.585 360.34 436.19 358.79 433.4C357.24 430.61 356.465 426.735 356.465 421.775C356.465 414.748 358.067 408.187 361.27 402.09C364.474 395.993 368.917 391.085 374.6 387.365C380.284 383.645 386.845 381.785 394.285 381.785C401.415 381.785 407.719 383.697 413.195 387.52C418.775 391.343 423.167 397.182 426.37 405.035C429.574 412.888 431.175 422.963 431.175 435.26V531.205C431.175 535.235 431.795 538.128 433.035 539.885C434.275 541.642 435.774 542.52 437.53 542.52C438.874 542.52 440.217 542.21 441.56 541.59C442.904 540.867 443.937 540.195 444.66 539.575L446.365 542.365C445.435 543.398 443.524 544.432 440.63 545.465C437.737 546.498 434.224 547.015 430.09 547.015C426.68 547.015 423.374 546.447 420.17 545.31C417.07 544.277 414.487 542.468 412.42 539.885C410.457 537.198 409.424 533.685 409.32 529.345C408.804 531.722 407.564 534.408 405.6 537.405C403.74 540.298 401.105 542.83 397.695 545C394.389 547.17 390.204 548.255 385.14 548.255ZM392.58 541.435C395.267 541.435 397.799 540.505 400.175 538.645C402.552 536.682 404.412 534.305 405.755 531.515C407.202 528.725 407.925 526.038 407.925 523.455V443.475C407.719 446.368 406.065 449.623 402.965 453.24C399.969 456.753 396.507 460.887 392.58 465.64C388.757 470.393 385.347 476.128 382.35 482.845C379.457 489.458 378.01 497.26 378.01 506.25C378.01 517.203 378.992 525.832 380.955 532.135C382.919 538.335 386.794 541.435 392.58 541.435ZM452.907 545V541.9H466.392V385.815H452.907V382.715H489.642V405.655C490.779 402.142 492.38 398.577 494.447 394.96C496.617 391.24 499.407 388.14 502.817 385.66C506.227 383.077 510.412 381.785 515.372 381.785C520.332 381.785 525.034 382.973 529.477 385.35C534.024 387.623 537.744 392.118 540.637 398.835C543.634 405.552 545.132 415.575 545.132 428.905V541.9H557.997V545H510.102V541.9H521.882V432.005C521.882 416.402 520.745 404.983 518.472 397.75C516.199 390.517 512.634 386.9 507.777 386.9C505.4 386.9 503.127 388.037 500.957 390.31C498.89 392.48 496.979 395.27 495.222 398.68C493.569 402.09 492.225 405.552 491.192 409.065C490.262 412.578 489.745 415.678 489.642 418.365V541.9H501.732V545H452.907ZM613.678 622.19C604.688 622.19 596.783 620.382 589.963 616.765C583.247 613.148 578.028 608.24 574.308 602.04C570.588 595.84 568.728 588.865 568.728 581.115C568.728 576.258 569.452 571.815 570.898 567.785C572.448 563.755 574.515 560.19 577.098 557.09C579.785 553.99 582.73 551.407 585.933 549.34C589.24 547.377 592.598 546.033 596.008 545.31C594.975 545.103 593.218 544.483 590.738 543.45C588.258 542.417 585.623 540.97 582.833 539.11C580.043 537.147 577.615 534.77 575.548 531.98C573.585 529.087 572.603 525.728 572.603 521.905C572.603 517.255 573.74 513.483 576.013 510.59C578.287 507.697 580.922 505.578 583.918 504.235C586.915 502.892 589.447 502.22 591.513 502.22C591.823 502.22 592.237 502.22 592.753 502.22C593.27 502.22 593.58 502.323 593.683 502.53C591.823 500.98 589.705 498.758 587.328 495.865C585.055 492.868 582.885 489.148 580.818 484.705C578.752 480.158 577.047 474.785 575.703 468.585C574.36 462.282 573.688 455.048 573.688 446.885C573.688 434.382 574.825 423.945 577.098 415.575C579.372 407.205 582.42 400.54 586.243 395.58C590.17 390.62 594.51 387.107 599.263 385.04C604.12 382.87 609.08 381.785 614.143 381.785C622.823 381.785 630.005 384.213 635.688 389.07C641.372 393.927 645.66 401.005 648.553 410.305C651.447 419.605 652.893 430.868 652.893 444.095C652.893 456.185 651.757 466.415 649.483 474.785C647.313 483.155 644.317 489.872 640.493 494.935C636.773 499.998 632.537 503.667 627.783 505.94C623.03 508.11 618.225 509.195 613.368 509.195C608.305 509.195 604.275 508.575 601.278 507.335C598.385 505.992 596.628 505.113 596.008 504.7C595.905 504.493 595.698 504.39 595.388 504.39C595.182 504.39 594.923 504.39 594.613 504.39C592.753 504.39 590.17 505.268 586.863 507.025C583.66 508.678 582.058 511.675 582.058 516.015C582.058 520.975 585.003 524.953 590.893 527.95C596.783 530.947 605.877 533.427 618.173 535.39C632.02 537.457 642.457 541.642 649.483 547.945C656.51 554.248 660.023 564.117 660.023 577.55C660.023 585.3 658.628 592.017 655.838 597.7C653.152 603.383 649.535 607.982 644.988 611.495C640.545 615.112 635.585 617.798 630.108 619.555C624.632 621.312 619.155 622.19 613.678 622.19ZM613.678 619.4C622.255 619.4 628.817 615.938 633.363 609.015C637.91 602.092 640.183 593.98 640.183 584.68C640.183 574.76 638.375 567.268 634.758 562.205C631.245 557.245 626.44 553.938 620.343 552.285C617.347 551.562 614.608 550.838 612.128 550.115C609.752 549.392 607.633 548.72 605.773 548.1C604.017 547.48 602.57 547.067 601.433 546.86C598.023 548.513 595.285 551.2 593.218 554.92C591.152 558.743 589.705 562.98 588.878 567.63C588.052 572.383 587.638 576.878 587.638 581.115C587.638 586.902 588.465 592.74 590.118 598.63C591.875 604.52 594.665 609.428 598.488 613.355C602.415 617.385 607.478 619.4 613.678 619.4ZM613.368 506.095C616.365 506.095 619 504.597 621.273 501.6C623.65 498.603 625.51 492.713 626.853 483.93C628.197 475.147 628.868 462.075 628.868 444.715C628.868 428.388 628.197 415.937 626.853 407.36C625.51 398.783 623.702 392.893 621.428 389.69C619.258 386.487 616.727 384.885 613.833 384.885C610.94 384.885 608.253 386.487 605.773 389.69C603.397 392.893 601.433 398.887 599.883 407.67C598.437 416.35 597.713 428.957 597.713 445.49C597.713 462.54 598.437 475.405 599.883 484.085C601.33 492.765 603.242 498.603 605.618 501.6C607.995 504.597 610.578 506.095 613.368 506.095ZM632.743 391.705C633.363 386.952 635.482 382.715 639.098 378.995C642.715 375.172 646.9 373.26 651.653 373.26C654.65 373.26 656.923 374.087 658.473 375.74C660.127 377.393 660.953 379.615 660.953 382.405C660.953 385.092 660.23 387.262 658.783 388.915C657.337 390.465 655.373 391.24 652.893 391.24C650.93 391.24 649.277 390.62 647.933 389.38C646.693 388.14 645.557 386.952 644.523 385.815C643.593 384.575 642.405 383.955 640.958 383.955C639.615 383.955 638.323 384.73 637.083 386.28C635.947 387.83 635.378 389.638 635.378 391.705H632.743ZM716.424 548.41C711.05 548.41 705.832 546.55 700.769 542.83C695.705 539.11 691.159 533.633 687.129 526.4C683.099 519.167 679.895 510.28 677.519 499.74C675.142 489.2 673.954 477.058 673.954 463.315C673.954 448.332 675.194 435.673 677.674 425.34C680.154 414.903 683.46 406.482 687.594 400.075C691.727 393.668 696.274 389.018 701.234 386.125C706.297 383.232 711.36 381.785 716.424 381.785C721.59 381.785 726.654 383.232 731.614 386.125C736.677 389.018 741.275 393.668 745.409 400.075C749.645 406.482 753.004 414.903 755.484 425.34C757.964 435.673 759.204 448.332 759.204 463.315C759.204 477.058 758.015 489.2 755.639 499.74C753.262 510.28 750.007 519.167 745.874 526.4C741.74 533.633 737.142 539.11 732.079 542.83C727.015 546.55 721.797 548.41 716.424 548.41ZM716.424 545.62C722.314 545.62 726.86 538.542 730.064 524.385C733.37 510.125 735.024 489.768 735.024 463.315C735.024 437.378 733.37 417.797 730.064 404.57C726.86 391.24 722.314 384.575 716.424 384.575C710.534 384.575 705.987 391.24 702.784 404.57C699.684 417.797 698.134 437.378 698.134 463.315C698.134 489.768 699.684 510.125 702.784 524.385C705.987 538.542 710.534 545.62 716.424 545.62Z" fill="#7634CB"/>
<path d="M576.827 176.276L502.206 68.0312L697.709 124.576L576.827 176.276Z" fill="#7634CB"/>
<line x1="577.383" y1="174.354" x2="535.43" y2="319.409" stroke="#7634CB" stroke-width="5"/>
<line x1="486.918" y1="305.378" x2="583.941" y2="333.44" stroke="#7634CB" stroke-width="4"/>
</svg>